<svg xmlns="http://www.w3.org/2000/svg" width="27" height="32" viewBox="0 0 27 32"><path fill="#fff" d="M18.272 16q0-1.888-1.312-3.232t-3.232-1.344-3.232 1.344T9.152 16t1.344 3.232 3.232 1.344 3.232-1.344T18.272 16zm9.152-1.952v3.968q0 .224-.128.416t-.352.224l-3.328.512q-.32.96-.672 1.632.608.864 1.888 2.464.192.192.192.416t-.16.416q-.48.672-1.76 1.952t-1.696 1.248q-.224 0-.448-.16l-2.464-1.92q-.8.416-1.632.672-.288 2.432-.512 3.328-.128.512-.64.512h-3.968q-.256 0-.448-.16t-.192-.384l-.512-3.296q-.864-.288-1.6-.672l-2.528 1.92q-.192.16-.448.16t-.448-.192q-2.24-2.048-2.944-3.008-.128-.16-.128-.416 0-.192.16-.384.256-.384.896-1.184t.96-1.28q-.48-.896-.736-1.76l-3.264-.48q-.224-.032-.352-.224T0 17.952v-3.968q0-.224.16-.416t.32-.224l3.328-.512q.256-.8.704-1.632-.736-1.024-1.92-2.464-.192-.224-.192-.448 0-.16.16-.384.48-.64 1.76-1.92t1.696-1.28q.224 0 .48.16l2.464 1.92q.768-.416 1.6-.672.288-2.432.544-3.328.096-.512.64-.512h3.968q.224 0 .416.16t.224.384l.48 3.296q.896.288 1.632.64l2.528-1.888q.16-.16.416-.16.224 0 .448.16 2.304 2.144 2.944 3.04.128.16.128.384t-.128.416q-.288.384-.928 1.184t-.96 1.28q.48.896.736 1.728l3.264.512q.224.032.384.224t.128.416z"/></svg>