<svg version="1" xmlns="http://www.w3.org/2000/svg" width="341.333" height="341.333" viewBox="0 0 256.000000 256.000000"><g fill="#ff2e34"><path d="M123.8 4.1c-1 .5-3.7 1.6-6 2.3-6.3 2-22 7.5-24.3 8.5-3.3 1.5-22.1 8.1-22.9 8.1-.5 0-2.2.6-3.9 1.4-3 1.3-11.8 4.4-37.2 13.3-5.5 2-10.9 3.9-12 4.4-1.1.5-3.2 1.3-4.7 1.8-3 1.1-2.9-.2-.8 15.1.5 3.6 1.2 9.4 1.5 13 .3 3.6 1.2 11.7 2 18 1.5 11.8 3.7 31.5 5.5 47.5 1.6 14.3 4.9 43.2 6 52.4.5 4.7 1.4 8.9 1.8 9.3.9.9 13.4 8 27.2 15.5 3.6 1.9 7.9 4.3 9.5 5.3 1.7 1 5.3 3 8 4.5 2.8 1.5 15.9 8.8 29.2 16.2l24.3 13.5 29.2-16.2c35.7-19.8 45.4-25.2 53.8-30 3.6-2 8.9-5 11.8-6.5 2.8-1.6 5.2-3.2 5.2-3.6 0-.4.7-6.1 1.6-12.6.8-6.5 2.2-17.2 3-23.8.7-6.6 2-17.2 2.8-23.5.8-6.3 2.2-17.1 3-24 .9-6.9 2.1-15.9 2.6-20 1.2-8.2 3.6-27.8 5.1-40.9.5-4.7.6-8.8.2-9.2-.4-.4-3.5-1.7-6.8-2.8-3.3-1.1-15.2-5.2-26.5-9.1-11.3-3.9-27-9.3-35-12-8-2.7-22.4-7.6-32-10.9-9.6-3.4-17.9-6.1-18.5-6.1-.5.1-1.8.5-2.7 1.1zm61 123.1l-.3 57.3-58.2.3-58.3.2V70h117l-.2 57.2z"/><path d="M102.3 78.7L77 79l-.2 48.5-.3 48.5H175V78l-23.7.2c-13.1.2-35.2.4-49 .5zM99 108v14h13V94h10l-.2 33.2-.3 33.3-4.7.3-4.8.3V132h-12v12.9c0 7.1-.3 13.6-.6 14.5-.9 2.2-8.9 2.2-9.8 0-.8-2.1-.8-63.9.1-64.7.3-.4 2.6-.7 5-.7H99v14zm46.4-.3c2.6 7.6 5.5 16 6.6 18.8l1.9 5v-18.8L154 94h9l-.2 33.2-.3 33.3-4.3.3c-5.1.4-4.8 1-11.9-21.2l-4.8-15-.5 18-.5 17.9h-9l-.3-33.3L131 94h9.7l4.7 13.7z"/></g></svg>