<?xml version="1.0" standalone="no"?>
<!DOCTYPE svg PUBLIC "-//W3C//DTD SVG 20010904//EN"
 "http://www.w3.org/TR/2001/REC-SVG-20010904/DTD/svg10.dtd">
<svg version="1.0" xmlns="http://www.w3.org/2000/svg"
 width="256.000000pt" height="256.000000pt" viewBox="0 0 256.000000 256.000000"
 preserveAspectRatio="xMidYMid meet">

<g transform="translate(0.000000,256.000000) scale(0.100000,-0.100000)"
fill="#000000" stroke="none">
<path fill="#ff2e34" d="M1238 2519 c-10 -5 -37 -16 -60 -23 -63 -20 -220 -75 -243 -85 -33
-15 -221 -81 -229 -81 -5 0 -22 -6 -39 -14 -30 -13 -118 -44 -372 -133 -55
-20 -109 -39 -120 -44 -11 -5 -32 -13 -47 -18 -30 -11 -29 2 -8 -151 5 -36 12
-94 15 -130 3 -36 12 -117 20 -180 15 -118 37 -315 55 -475 16 -143 49 -432
60 -524 5 -47 14 -89 18 -93 9 -9 134 -80 272 -155 36 -19 79 -43 95 -53 17
-10 53 -30 80 -45 28 -15 159 -88 292 -162 l243 -135 292 162 c357 198 454
252 538 300 36 20 89 50 118 65 28 16 52 32 52 36 0 4 7 61 16 126 8 65 22
172 30 238 7 66 20 172 28 235 8 63 22 171 30 240 9 69 21 159 26 200 12 82
36 278 51 409 5 47 6 88 2 92 -4 4 -35 17 -68 28 -33 11 -152 52 -265 91 -113
39 -270 93 -350 120 -80 27 -224 76 -320 109 -96 34 -179 61 -185 61 -5 -1
-18 -5 -27 -11z m610 -1231 l-3 -573 -582 -3 -583 -2 0 575 0 575 585 0 585 0
-2 -572z"/>
<path fill="#ff2e34" d="M1023 1773 l-253 -3 -2 -485 -3 -485 493 0 492 0 0 490 0 490 -237
-2 c-131 -2 -352 -4 -490 -5z m-33 -293 l0 -140 65 0 65 0 0 140 0 140 50 0
50 0 -2 -332 -3 -333 -47 -3 -48 -3 0 145 0 146 -60 0 -60 0 0 -129 c0 -71 -3
-136 -6 -145 -9 -22 -89 -22 -98 0 -8 21 -8 639 1 647 3 4 26 7 50 7 l43 0 0
-140z m464 3 c26 -76 55 -160 66 -188 l19 -50 0 188 1 187 45 0 45 0 -2 -332
-3 -333 -43 -3 c-51 -4 -48 -10 -119 212 l-48 150 -5 -180 -5 -179 -45 0 -45
0 -3 333 -2 332 49 0 48 0 47 -137z"/>
</g>
</svg>
