<svg version="1" xmlns="http://www.w3.org/2000/svg" width="341.333" height="341.333" viewBox="0 0 256.000000 256.000000"><g><path d="M108 9.6c-9.6 3.5-21.3 7.7-26 9.3-4.7 1.6-12.3 4.4-17 6.1-4.7 1.7-11 4-14 5s-9.3 3.2-14 4.9c-4.7 1.7-12.3 4.4-16.9 6.1-4.7 1.6-8.8 3.3-9.3 3.8-.7.7-.1 7.5 2.7 30.2 1.5 11.5 4.2 35.3 6.5 57.5 1.5 13.6 4 34.2 5 41 .5 3.3 1.2 10 1.6 15 .6 8.1 1 9.2 3.5 11.5 1.5 1.4 14.1 8.8 28.1 16.4 13.9 7.7 35 19.3 46.8 25.8 21.2 11.8 21.5 11.9 24.5 10.5 3.4-1.7 96.7-53.5 97.2-54.1.2-.2 1-5.9 1.8-12.7.8-6.8 2.2-17.6 3-23.9.9-6.3 2.5-18.9 3.5-28 1.1-9.1 2.6-21.5 3.4-27.5 4.9-37.5 7.5-58.5 7.6-61.1 0-1.4-.8-2.3-2.2-2.7-1.3-.3-15.6-5.1-31.8-10.7-16.2-5.6-33.3-11.4-38-13-4.7-1.5-17-5.7-27.5-9.4-10.4-3.6-19.4-6.5-20-6.5-.5 0-8.9 2.9-18.5 6.5zm76.8 115.9c.1 30.2 0 56-.3 57.2l-.5 2.3H68V70l58.3.2 58.2.3.3 55z"/><path d="M76.2 127.2l.3 49.3h99v-98l-49.8-.3L76 78l.2 49.2zm23-19l.3 14.3 6.3.3 6.2.3V94h9v32.8c0 18.1-.2 33.1-.4 33.3-.3.3-2.3.3-4.5.1l-4.1-.4v-28.9l-6.2.3-6.3.3-.3 14.2-.3 14.3H90V94h8.9l.3 14.2zm47.5 4.2c3.5 9.8 6.5 18.1 6.8 18.4.3.3.5-7.9.5-18.2V93.9l4.3.3 4.2.3.3 32.7.2 32.8h-9.6l-6-18c-3.2-9.9-6.1-18-6.4-18-.3 0-.3 7.7-.2 17 .3 11.2 0 17.5-.7 18.4-.7.9-2.3 1.1-4.8.7l-3.8-.6-.3-31.5c-.1-17.3 0-32.1.3-32.8.3-.9 1.9-1.2 4.7-1l4.3.3 6.2 17.9z"/></g></svg>