<?xml version="1.0" standalone="no"?>
<!DOCTYPE svg PUBLIC "-//W3C//DTD SVG 20010904//EN"
 "http://www.w3.org/TR/2001/REC-SVG-20010904/DTD/svg10.dtd">
<svg version="1.0" xmlns="http://www.w3.org/2000/svg"
 width="256.000000pt" height="256.000000pt" viewBox="0 0 256.000000 256.000000"
 preserveAspectRatio="xMidYMid meet">
<metadata>
Created by potrace 1.11, written by Peter Selinger 2001-2013
</metadata>
<g transform="translate(0.000000,256.000000) scale(0.100000,-0.100000)"
fill="#000000" stroke="none">
<path d="M1080 2464 c-96 -35 -213 -77 -260 -93 -47 -16 -123 -44 -170 -61
-47 -17 -110 -40 -140 -50 -30 -10 -93 -32 -140 -49 -47 -17 -123 -44 -169
-61 -47 -16 -88 -33 -93 -38 -7 -7 -1 -75 27 -302 15 -115 42 -353 65 -575 15
-136 40 -342 50 -410 5 -33 12 -100 16 -150 6 -81 10 -92 35 -115 15 -14 141
-88 281 -164 139 -77 350 -193 468 -258 212 -118 215 -119 245 -105 34 17 967
535 972 541 2 2 10 59 18 127 8 68 22 176 30 239 9 63 25 189 35 280 11 91 26
215 34 275 49 375 75 585 76 611 0 14 -8 23 -22 27 -13 3 -156 51 -318 107
-162 56 -333 114 -380 130 -47 15 -170 57 -275 94 -104 36 -194 65 -200 65 -5
0 -89 -29 -185 -65z m768 -1159 c1 -302 0 -560 -3 -572 l-5 -23 -580 0 -580 0
0 575 0 575 583 -2 582 -3 3 -550z"/>
<path d="M762 1288 l3 -493 495 0 495 0 0 490 0 490 -498 3 -497 2 2 -492z
m230 190 l3 -143 63 -3 62 -3 0 146 0 145 45 0 45 0 0 -328 c0 -181 -2 -331
-4 -333 -3 -3 -23 -3 -45 -1 l-41 4 0 145 0 144 -62 -3 -63 -3 -3 -142 -3
-143 -44 0 -45 0 0 330 0 330 45 0 44 0 3 -142z m475 -42 c35 -98 65 -181 68
-184 3 -3 5 79 5 182 l0 187 43 -3 42 -3 3 -327 2 -328 -48 0 -48 0 -60 180
c-32 99 -61 180 -64 180 -3 0 -3 -77 -2 -170 3 -112 0 -175 -7 -184 -7 -9 -23
-11 -48 -7 l-38 6 -3 315 c-1 173 0 321 3 328 3 9 19 12 47 10 l43 -3 62 -179z"/>
</g>
</svg>
